<?xml version="1.0" encoding="iso-8859-1"?>
<!-- Uploaded to: SVG Repo, www.svgrepo.com, Generator: SVG Repo Mixer Tools -->
<svg height="800px" width="800px" version="1.1" id="Layer_1" xmlns="http://www.w3.org/2000/svg" xmlns:xlink="http://www.w3.org/1999/xlink" 
	 viewBox="0 0 512 512" xml:space="preserve">
<g transform="translate(1)">
	<g>
		<path style="fill:#FFE100;" d="M216.6,503.467H97.133c0-18.773,15.36-34.133,34.133-34.133h51.2
			C201.24,469.333,216.6,484.693,216.6,503.467"/>
		<polygon style="fill:#FFE100;" points="276.333,349.867 378.733,349.867 378.733,110.933 276.333,110.933 		"/>
	</g>
	<path style="fill:#E4667F;" d="M344.6,162.133c0,9.387-7.68,17.067-17.067,17.067c-9.387,0-17.067-7.68-17.067-17.067
		s7.68-17.067,17.067-17.067C336.92,145.067,344.6,152.747,344.6,162.133"/>
	<path style="fill:#FFA800;" d="M344.6,230.4c0,9.387-7.68,17.067-17.067,17.067c-9.387,0-17.067-7.68-17.067-17.067
		s7.68-17.067,17.067-17.067C336.92,213.333,344.6,221.013,344.6,230.4"/>
	<path style="fill:#00DA6C;" d="M344.6,298.667c0,9.387-7.68,17.067-17.067,17.067c-9.387,0-17.067-7.68-17.067-17.067
		s7.68-17.067,17.067-17.067C336.92,281.6,344.6,289.28,344.6,298.667"/>
	<g>
		<polygon style="fill:#FFE100;" points="139.8,8.533 139.8,42.667 139.8,469.333 173.933,469.333 173.933,42.667 412.867,42.667 
			412.867,8.533 		"/>
		<path style="fill:#FFE100;" d="M276.333,170.667h-102.4c-5.12,0-8.533-3.413-8.533-8.533c0-5.12,3.413-8.533,8.533-8.533h102.4
			c5.12,0,8.533,3.413,8.533,8.533C284.867,167.253,281.453,170.667,276.333,170.667z"/>
		<path style="fill:#FFE100;" d="M276.333,324.267h-102.4c-5.12,0-8.533-3.413-8.533-8.533c0-5.12,3.413-8.533,8.533-8.533h102.4
			c5.12,0,8.533,3.413,8.533,8.533C284.867,320.853,281.453,324.267,276.333,324.267z"/>
	</g>
	<path d="M216.6,512L216.6,512H97.133c-5.12,0-8.533-3.413-8.533-8.533c0-23.893,18.773-42.667,42.667-42.667h51.2
		c23.04,0,41.813,17.92,42.667,40.96c0,0.853,0,0.853,0,1.707C225.133,508.587,221.72,512,216.6,512z M107.373,494.933h99.84
		c-3.413-10.24-12.8-17.067-23.893-17.067h-52.053C120.173,477.867,110.787,484.693,107.373,494.933z"/>
	<path d="M378.733,358.4h-102.4c-5.12,0-8.533-3.413-8.533-8.533V110.933c0-5.12,3.413-8.533,8.533-8.533h102.4
		c5.12,0,8.533,3.413,8.533,8.533v238.933C387.267,354.987,383.853,358.4,378.733,358.4z M284.867,341.333H370.2V119.467h-85.333
		V341.333z"/>
	<path d="M327.533,187.733c-14.507,0-25.6-11.093-25.6-25.6c0-14.507,11.093-25.6,25.6-25.6s25.6,11.093,25.6,25.6
		C353.133,176.64,342.04,187.733,327.533,187.733z M327.533,153.6c-5.12,0-8.533,3.413-8.533,8.533c0,5.12,3.413,8.533,8.533,8.533
		s8.533-3.413,8.533-8.533C336.067,157.013,332.653,153.6,327.533,153.6z"/>
	<path d="M327.533,256c-14.507,0-25.6-11.093-25.6-25.6c0-14.507,11.093-25.6,25.6-25.6s25.6,11.093,25.6,25.6
		C353.133,244.907,342.04,256,327.533,256z M327.533,221.867c-5.12,0-8.533,3.413-8.533,8.533c0,5.12,3.413,8.533,8.533,8.533
		s8.533-3.413,8.533-8.533C336.067,225.28,332.653,221.867,327.533,221.867z"/>
	<path d="M327.533,324.267c-14.507,0-25.6-11.093-25.6-25.6s11.093-25.6,25.6-25.6s25.6,11.093,25.6,25.6
		S342.04,324.267,327.533,324.267z M327.533,290.133c-5.12,0-8.533,3.413-8.533,8.533s3.413,8.533,8.533,8.533
		s8.533-3.413,8.533-8.533S332.653,290.133,327.533,290.133z"/>
	<path d="M327.533,119.467c-5.12,0-8.533-3.413-8.533-8.533V42.667c0-5.12,3.413-8.533,8.533-8.533s8.533,3.413,8.533,8.533v68.267
		C336.067,116.053,332.653,119.467,327.533,119.467z"/>
	<path d="M276.333,162.133h-102.4c-5.12,0-8.533-3.413-8.533-8.533c0-5.12,3.413-8.533,8.533-8.533h102.4
		c5.12,0,8.533,3.413,8.533,8.533C284.867,158.72,281.453,162.133,276.333,162.133z"/>
	<path d="M276.333,315.733h-102.4c-5.12,0-8.533-3.413-8.533-8.533s3.413-8.533,8.533-8.533h102.4c5.12,0,8.533,3.413,8.533,8.533
		S281.453,315.733,276.333,315.733z"/>
	<path d="M173.933,477.867H139.8c-5.12,0-8.533-3.413-8.533-8.533V8.533c0-5.12,3.413-8.533,8.533-8.533h273.067
		c5.12,0,8.533,3.413,8.533,8.533v34.133c0,5.12-3.413,8.533-8.533,8.533h-230.4v418.133
		C182.467,474.453,179.053,477.867,173.933,477.867z M148.333,460.8H165.4V42.667c0-5.12,3.413-8.533,8.533-8.533h230.4V17.067h-256
		V460.8z"/>
	<path d="M378.733,187.733c-5.12,0-8.533-3.413-8.533-8.533c0-23.893,18.773-42.667,42.667-42.667c5.12,0,8.533,3.413,8.533,8.533
		c0,5.12-3.413,8.533-8.533,8.533c-14.507,0-25.6,11.093-25.6,25.6C387.267,184.32,383.853,187.733,378.733,187.733z"/>
	<path d="M378.733,256c-5.12,0-8.533-3.413-8.533-8.533c0-23.893,18.773-42.667,42.667-42.667c5.12,0,8.533,3.413,8.533,8.533
		c0,5.12-3.413,8.533-8.533,8.533c-14.507,0-25.6,11.093-25.6,25.6C387.267,252.587,383.853,256,378.733,256z"/>
	<path d="M378.733,324.267c-5.12,0-8.533-3.413-8.533-8.533c0-23.893,18.773-42.667,42.667-42.667c5.12,0,8.533,3.413,8.533,8.533
		c0,5.12-3.413,8.533-8.533,8.533c-14.507,0-25.6,11.093-25.6,25.6C387.267,320.853,383.853,324.267,378.733,324.267z"/>
</g>
</svg>